<?xml version="1.0" encoding="utf-8"?>
<!-- Generator: Adobe Illustrator 16.0.3, SVG Export Plug-In . SVG Version: 6.00 Build 0)  -->
<!DOCTYPE svg PUBLIC "-//W3C//DTD SVG 1.1//EN" "http://www.w3.org/Graphics/SVG/1.1/DTD/svg11.dtd">
<svg version="1.1" id="Layer_1" xmlns="http://www.w3.org/2000/svg" xmlns:xlink="http://www.w3.org/1999/xlink" x="0px" y="0px"
	 width="960px" height="560px" viewBox="0 0 960 560" enable-background="new 0 0 960 560" xml:space="preserve">
<g id="LINE_225_">
	
		<line fill="none" stroke="#000000" stroke-width="0.5" stroke-linecap="round" stroke-linejoin="round" stroke-miterlimit="10" x1="483.593" y1="399.306" x2="496.78" y2="391.773"/>
</g>
<g id="LINE_227_">
	
		<line fill="none" stroke="#000000" stroke-width="0.5" stroke-linecap="round" stroke-linejoin="round" stroke-miterlimit="10" x1="496.78" y1="391.773" x2="483.593" y2="358.458"/>
</g>
<g id="LINE_270_">
	
		<line fill="none" stroke="#000000" stroke-width="0.5" stroke-linecap="round" stroke-linejoin="round" stroke-miterlimit="10" x1="95.915" y1="206.239" x2="57.875" y2="345.8"/>
</g>
<g id="LINE_271_">
	
		<line fill="none" stroke="#000000" stroke-width="0.5" stroke-linecap="round" stroke-linejoin="round" stroke-miterlimit="10" x1="57.875" y1="345.8" x2="59.734" y2="346.861"/>
</g>
<g id="LINE_272_">
	
		<line fill="none" stroke="#000000" stroke-width="0.5" stroke-linecap="round" stroke-linejoin="round" stroke-miterlimit="10" x1="97.775" y1="207.302" x2="59.734" y2="346.861"/>
</g>
<g id="LINE_273_">
	
		<line fill="none" stroke="#000000" stroke-width="0.5" stroke-linecap="round" stroke-linejoin="round" stroke-miterlimit="10" x1="95.915" y1="206.239" x2="97.775" y2="207.302"/>
</g>
<g id="LINE_276_">
	
		<line fill="none" stroke="#000000" stroke-width="0.5" stroke-linecap="round" stroke-linejoin="round" stroke-miterlimit="10" x1="59.734" y1="346.861" x2="97.775" y2="325.131"/>
</g>
<g id="LINE_278_">
	
		<line fill="none" stroke="#000000" stroke-width="0.5" stroke-linecap="round" stroke-linejoin="round" stroke-miterlimit="10" x1="97.775" y1="325.131" x2="97.775" y2="207.302"/>
</g>
<g id="LINE_279_">
	
		<line fill="none" stroke="#000000" stroke-width="0.5" stroke-linecap="round" stroke-linejoin="round" stroke-miterlimit="10" x1="147.482" y1="235.697" x2="109.441" y2="375.256"/>
</g>
<g id="LINE_280_">
	
		<line fill="none" stroke="#000000" stroke-width="0.5" stroke-linecap="round" stroke-linejoin="round" stroke-miterlimit="10" x1="109.441" y1="375.256" x2="111.301" y2="376.319"/>
</g>
<g id="LINE_281_">
	
		<line fill="none" stroke="#000000" stroke-width="0.5" stroke-linecap="round" stroke-linejoin="round" stroke-miterlimit="10" x1="149.341" y1="236.759" x2="111.301" y2="376.319"/>
</g>
<g id="LINE_282_">
	
		<line fill="none" stroke="#000000" stroke-width="0.5" stroke-linecap="round" stroke-linejoin="round" stroke-miterlimit="10" x1="147.482" y1="235.697" x2="149.341" y2="236.759"/>
</g>
<g id="LINE_285_">
	
		<line fill="none" stroke="#000000" stroke-width="0.5" stroke-linecap="round" stroke-linejoin="round" stroke-miterlimit="10" x1="111.301" y1="376.319" x2="149.341" y2="354.589"/>
</g>
<g id="LINE_287_">
	
		<line fill="none" stroke="#000000" stroke-width="0.5" stroke-linecap="round" stroke-linejoin="round" stroke-miterlimit="10" x1="149.341" y1="354.589" x2="149.341" y2="236.759"/>
</g>
<g id="LINE_288_">
	
		<line fill="none" stroke="#000000" stroke-width="0.5" stroke-linecap="round" stroke-linejoin="round" stroke-miterlimit="10" x1="199.048" y1="265.154" x2="161.007" y2="404.714"/>
</g>
<g id="LINE_289_">
	
		<line fill="none" stroke="#000000" stroke-width="0.5" stroke-linecap="round" stroke-linejoin="round" stroke-miterlimit="10" x1="161.007" y1="404.714" x2="162.867" y2="405.776"/>
</g>
<g id="LINE_290_">
	
		<line fill="none" stroke="#000000" stroke-width="0.5" stroke-linecap="round" stroke-linejoin="round" stroke-miterlimit="10" x1="200.908" y1="266.216" x2="162.867" y2="405.776"/>
</g>
<g id="LINE_291_">
	
		<line fill="none" stroke="#000000" stroke-width="0.5" stroke-linecap="round" stroke-linejoin="round" stroke-miterlimit="10" x1="199.048" y1="265.154" x2="200.908" y2="266.216"/>
</g>
<g id="LINE_294_">
	
		<line fill="none" stroke="#000000" stroke-width="0.5" stroke-linecap="round" stroke-linejoin="round" stroke-miterlimit="10" x1="162.867" y1="405.776" x2="200.908" y2="384.047"/>
</g>
<g id="LINE_296_">
	
		<line fill="none" stroke="#000000" stroke-width="0.5" stroke-linecap="round" stroke-linejoin="round" stroke-miterlimit="10" x1="200.908" y1="384.047" x2="200.908" y2="266.216"/>
</g>
<g id="LINE_297_">
	
		<line fill="none" stroke="#000000" stroke-width="0.5" stroke-linecap="round" stroke-linejoin="round" stroke-miterlimit="10" x1="250.614" y1="294.611" x2="212.573" y2="434.173"/>
</g>
<g id="LINE_298_">
	
		<line fill="none" stroke="#000000" stroke-width="0.5" stroke-linecap="round" stroke-linejoin="round" stroke-miterlimit="10" x1="212.573" y1="434.173" x2="214.433" y2="435.233"/>
</g>
<g id="LINE_299_">
	
		<line fill="none" stroke="#000000" stroke-width="0.5" stroke-linecap="round" stroke-linejoin="round" stroke-miterlimit="10" x1="252.474" y1="295.674" x2="214.433" y2="435.233"/>
</g>
<g id="LINE_300_">
	
		<line fill="none" stroke="#000000" stroke-width="0.5" stroke-linecap="round" stroke-linejoin="round" stroke-miterlimit="10" x1="250.614" y1="294.611" x2="252.474" y2="295.674"/>
</g>
<g id="LINE_303_">
	
		<line fill="none" stroke="#000000" stroke-width="0.5" stroke-linecap="round" stroke-linejoin="round" stroke-miterlimit="10" x1="214.433" y1="435.233" x2="252.474" y2="413.504"/>
</g>
<g id="LINE_305_">
	
		<line fill="none" stroke="#000000" stroke-width="0.5" stroke-linecap="round" stroke-linejoin="round" stroke-miterlimit="10" x1="252.474" y1="413.504" x2="252.474" y2="295.674"/>
</g>
<g id="LINE_306_">
	
		<line fill="none" stroke="#000000" stroke-width="0.5" stroke-linecap="round" stroke-linejoin="round" stroke-miterlimit="10" x1="302.181" y1="324.069" x2="264.14" y2="463.63"/>
</g>
<g id="LINE_307_">
	
		<line fill="none" stroke="#000000" stroke-width="0.5" stroke-linecap="round" stroke-linejoin="round" stroke-miterlimit="10" x1="264.14" y1="463.63" x2="266" y2="464.691"/>
</g>
<g id="LINE_308_">
	
		<line fill="none" stroke="#000000" stroke-width="0.5" stroke-linecap="round" stroke-linejoin="round" stroke-miterlimit="10" x1="304.041" y1="325.131" x2="266" y2="464.691"/>
</g>
<g id="LINE_309_">
	
		<line fill="none" stroke="#000000" stroke-width="0.5" stroke-linecap="round" stroke-linejoin="round" stroke-miterlimit="10" x1="302.181" y1="324.069" x2="304.041" y2="325.131"/>
</g>
<g id="LINE_312_">
	
		<line fill="none" stroke="#000000" stroke-width="0.5" stroke-linecap="round" stroke-linejoin="round" stroke-miterlimit="10" x1="266" y1="464.691" x2="304.041" y2="442.96"/>
</g>
<g id="LINE_314_">
	
		<line fill="none" stroke="#000000" stroke-width="0.5" stroke-linecap="round" stroke-linejoin="round" stroke-miterlimit="10" x1="304.041" y1="442.96" x2="304.041" y2="325.131"/>
</g>
<g id="LINE_315_">
	
		<line fill="none" stroke="#000000" stroke-width="0.5" stroke-linecap="round" stroke-linejoin="round" stroke-miterlimit="10" x1="353.747" y1="353.525" x2="315.706" y2="493.087"/>
</g>
<g id="LINE_316_">
	
		<line fill="none" stroke="#000000" stroke-width="0.5" stroke-linecap="round" stroke-linejoin="round" stroke-miterlimit="10" x1="315.706" y1="493.087" x2="317.566" y2="494.148"/>
</g>
<g id="LINE_317_">
	
		<line fill="none" stroke="#000000" stroke-width="0.5" stroke-linecap="round" stroke-linejoin="round" stroke-miterlimit="10" x1="355.606" y1="354.589" x2="317.566" y2="494.148"/>
</g>
<g id="LINE_318_">
	
		<line fill="none" stroke="#000000" stroke-width="0.5" stroke-linecap="round" stroke-linejoin="round" stroke-miterlimit="10" x1="353.747" y1="353.525" x2="355.606" y2="354.589"/>
</g>
<g id="LINE_321_">
	
		<line fill="none" stroke="#000000" stroke-width="0.5" stroke-linecap="round" stroke-linejoin="round" stroke-miterlimit="10" x1="317.566" y1="494.148" x2="355.606" y2="472.417"/>
</g>
<g id="LINE_323_">
	
		<line fill="none" stroke="#000000" stroke-width="0.5" stroke-linecap="round" stroke-linejoin="round" stroke-miterlimit="10" x1="355.606" y1="472.417" x2="355.606" y2="354.589"/>
</g>
<g id="LINE_324_">
	
		<line fill="none" stroke="#000000" stroke-width="0.5" stroke-linecap="round" stroke-linejoin="round" stroke-miterlimit="10" x1="380.46" y1="283.795" x2="483.593" y2="224.879"/>
</g>
<g id="LINE_325_">
	
		<line fill="none" stroke="#000000" stroke-width="0.5" stroke-linecap="round" stroke-linejoin="round" stroke-miterlimit="10" x1="483.593" y1="224.879" x2="483.593" y2="222.755"/>
</g>
<g id="LINE_326_">
	
		<line fill="none" stroke="#000000" stroke-width="0.5" stroke-linecap="round" stroke-linejoin="round" stroke-miterlimit="10" x1="380.46" y1="281.669" x2="483.593" y2="222.755"/>
</g>
<g id="LINE_327_">
	
		<line fill="none" stroke="#000000" stroke-width="0.5" stroke-linecap="round" stroke-linejoin="round" stroke-miterlimit="10" x1="380.46" y1="283.795" x2="380.46" y2="281.669"/>
</g>
<g id="LINE_330_">
	
		<line fill="none" stroke="#000000" stroke-width="0.5" stroke-linecap="round" stroke-linejoin="round" stroke-miterlimit="10" x1="483.593" y1="222.755" x2="268.028" y2="99.614"/>
</g>
<g id="LINE_332_">
	
		<line fill="none" stroke="#000000" stroke-width="0.5" stroke-linecap="round" stroke-linejoin="round" stroke-miterlimit="10" x1="164.896" y1="160.653" x2="164.896" y2="158.528"/>
</g>
<g id="LINE_333_">
	
		<line fill="none" stroke="#000000" stroke-width="0.5" stroke-linecap="round" stroke-linejoin="round" stroke-miterlimit="10" x1="268.028" y1="99.614" x2="164.896" y2="158.528"/>
</g>
<g id="LINE_334_">
	
		<line fill="none" stroke="#000000" stroke-width="0.5" stroke-linecap="round" stroke-linejoin="round" stroke-miterlimit="10" x1="164.896" y1="160.653" x2="380.46" y2="283.795"/>
</g>
<g id="LINE_335_">
	
		<line fill="none" stroke="#000000" stroke-width="0.5" stroke-linecap="round" stroke-linejoin="round" stroke-miterlimit="10" x1="164.896" y1="158.528" x2="380.46" y2="281.669"/>
</g>
<g id="LINE_338_">
	
		<line fill="none" stroke="#000000" stroke-width="0.5" stroke-linecap="round" stroke-linejoin="round" stroke-miterlimit="10" x1="268.028" y1="99.614" x2="174.195" y2="46.011"/>
</g>
<g id="LINE_340_">
	
		<line fill="none" stroke="#000000" stroke-width="0.5" stroke-linecap="round" stroke-linejoin="round" stroke-miterlimit="10" x1="71.062" y1="107.05" x2="71.062" y2="104.926"/>
</g>
<g id="LINE_341_">
	
		<line fill="none" stroke="#000000" stroke-width="0.5" stroke-linecap="round" stroke-linejoin="round" stroke-miterlimit="10" x1="174.195" y1="46.011" x2="71.062" y2="104.926"/>
</g>
<g id="LINE_342_">
	
		<line fill="none" stroke="#000000" stroke-width="0.5" stroke-linecap="round" stroke-linejoin="round" stroke-miterlimit="10" x1="71.062" y1="107.05" x2="164.896" y2="160.653"/>
</g>
<g id="LINE_343_">
	
		<line fill="none" stroke="#000000" stroke-width="0.5" stroke-linecap="round" stroke-linejoin="round" stroke-miterlimit="10" x1="71.062" y1="104.926" x2="164.896" y2="158.528"/>
</g>
<g id="LINE_347_">
	
		<line fill="none" stroke="#000000" stroke-width="0.5" stroke-linecap="round" stroke-linejoin="round" stroke-miterlimit="10" x1="483.593" y1="427.701" x2="481.734" y2="428.764"/>
</g>
<g id="LINE_349_">
	
		<line fill="none" stroke="#000000" stroke-width="0.5" stroke-linecap="round" stroke-linejoin="round" stroke-miterlimit="10" x1="382.319" y1="371.972" x2="481.734" y2="428.764"/>
</g>
<g id="LINE_351_">
	
		<line fill="none" stroke="#000000" stroke-width="0.5" stroke-linecap="round" stroke-linejoin="round" stroke-miterlimit="10" x1="483.593" y1="427.701" x2="483.593" y2="224.879"/>
</g>
<g id="LINE_352_">
	
		<line fill="none" stroke="#000000" stroke-width="0.5" stroke-linecap="round" stroke-linejoin="round" stroke-miterlimit="10" x1="481.734" y1="428.764" x2="481.734" y2="225.942"/>
</g>
<g id="LINE_377_">
	
		<line fill="none" stroke="#000000" stroke-width="0.5" stroke-linecap="round" stroke-linejoin="round" stroke-miterlimit="10" x1="97.775" y1="325.131" x2="119.691" y2="337.65"/>
</g>
<g id="LINE_379_">
	
		<line fill="none" stroke="#000000" stroke-width="0.5" stroke-linecap="round" stroke-linejoin="round" stroke-miterlimit="10" x1="149.341" y1="354.589" x2="171.257" y2="367.108"/>
</g>
<g id="LINE_385_">
	
		<line fill="none" stroke="#000000" stroke-width="0.5" stroke-linecap="round" stroke-linejoin="round" stroke-miterlimit="10" x1="174.195" y1="356.333" x2="174.195" y2="165.965"/>
</g>
<g id="LINE_387_">
	
		<line fill="none" stroke="#000000" stroke-width="0.5" stroke-linecap="round" stroke-linejoin="round" stroke-miterlimit="10" x1="71.062" y1="107.05" x2="71.062" y2="297.419"/>
</g>
<g id="LINE_392_">
	
		<line fill="none" stroke="#000000" stroke-width="0.5" stroke-linecap="round" stroke-linejoin="round" stroke-miterlimit="10" x1="200.908" y1="384.047" x2="222.824" y2="396.565"/>
</g>
<g id="LINE_394_">
	
		<line fill="none" stroke="#000000" stroke-width="0.5" stroke-linecap="round" stroke-linejoin="round" stroke-miterlimit="10" x1="252.474" y1="413.504" x2="274.39" y2="426.022"/>
</g>
<g id="LINE_399_">
	
		<line fill="none" stroke="#000000" stroke-width="0.5" stroke-linecap="round" stroke-linejoin="round" stroke-miterlimit="10" x1="277.327" y1="415.248" x2="277.327" y2="224.879"/>
</g>
<g id="LINE_401_">
	
		<line fill="none" stroke="#000000" stroke-width="0.5" stroke-linecap="round" stroke-linejoin="round" stroke-miterlimit="10" x1="382.319" y1="485.553" x2="380.46" y2="486.615"/>
</g>
<g id="LINE_403_">
	
		<line fill="none" stroke="#000000" stroke-width="0.5" stroke-linecap="round" stroke-linejoin="round" stroke-miterlimit="10" x1="304.041" y1="442.96" x2="325.957" y2="455.48"/>
</g>
<g id="LINE_405_">
	
		<line fill="none" stroke="#000000" stroke-width="0.5" stroke-linecap="round" stroke-linejoin="round" stroke-miterlimit="10" x1="355.606" y1="472.417" x2="380.46" y2="486.615"/>
</g>
<g id="LINE_406_">
	
		<line fill="none" stroke="#000000" stroke-width="0.5" stroke-linecap="round" stroke-linejoin="round" stroke-miterlimit="10" x1="382.319" y1="485.553" x2="382.319" y2="282.732"/>
</g>
<g id="LINE_407_">
	
		<line fill="none" stroke="#000000" stroke-width="0.5" stroke-linecap="round" stroke-linejoin="round" stroke-miterlimit="10" x1="380.46" y1="486.615" x2="380.46" y2="283.795"/>
</g>
<g id="CIRCLE">
	<path fill="none" stroke="#000000" stroke-width="0.5" stroke-linecap="round" stroke-linejoin="round" stroke-miterlimit="10" d="
		M361.405,269.129c0-0.334-0.273-0.603-0.611-0.603c-0.336,0-0.61,0.269-0.61,0.603s0.274,0.604,0.61,0.604
		C361.132,269.733,361.405,269.463,361.405,269.129L361.405,269.129z"/>
</g>
<g id="CIRCLE_1_">
	<path fill="none" stroke="#000000" stroke-width="0.5" stroke-linecap="round" stroke-linejoin="round" stroke-miterlimit="10" d="
		M340.779,257.354c0-0.333-0.274-0.604-0.611-0.604c-0.337,0-0.61,0.271-0.61,0.604c0,0.334,0.273,0.604,0.61,0.604
		C340.505,257.958,340.779,257.688,340.779,257.354L340.779,257.354z"/>
</g>
<g id="CIRCLE_2_">
	<path fill="none" stroke="#000000" stroke-width="0.5" stroke-linecap="round" stroke-linejoin="round" stroke-miterlimit="10" d="
		M320.152,245.58c0-0.333-0.273-0.604-0.611-0.604c-0.338,0-0.611,0.271-0.611,0.604c0,0.334,0.273,0.605,0.611,0.605
		C319.879,246.185,320.152,245.914,320.152,245.58L320.152,245.58z"/>
</g>
<g id="CIRCLE_3_">
	<path fill="none" stroke="#000000" stroke-width="0.5" stroke-linecap="round" stroke-linejoin="round" stroke-miterlimit="10" d="
		M299.526,233.806c0-0.333-0.274-0.604-0.611-0.604c-0.337,0-0.61,0.271-0.61,0.604s0.273,0.604,0.61,0.604
		C299.252,234.409,299.526,234.139,299.526,233.806L299.526,233.806z"/>
</g>
<g id="CIRCLE_4_">
	<path fill="none" stroke="#000000" stroke-width="0.5" stroke-linecap="round" stroke-linejoin="round" stroke-miterlimit="10" d="
		M196.393,174.932c0-0.333-0.273-0.604-0.61-0.604c-0.337,0-0.61,0.271-0.61,0.604s0.273,0.604,0.61,0.604
		C196.12,175.536,196.393,175.266,196.393,174.932L196.393,174.932z"/>
</g>
<g id="CIRCLE_5_">
	<path fill="none" stroke="#000000" stroke-width="0.5" stroke-linecap="round" stroke-linejoin="round" stroke-miterlimit="10" d="
		M217.019,186.707c0-0.333-0.273-0.604-0.61-0.604c-0.337,0-0.61,0.271-0.61,0.604c0,0.334,0.273,0.604,0.61,0.604
		C216.746,187.311,217.019,187.041,217.019,186.707L217.019,186.707z"/>
</g>
<g id="CIRCLE_6_">
	<path fill="none" stroke="#000000" stroke-width="0.5" stroke-linecap="round" stroke-linejoin="round" stroke-miterlimit="10" d="
		M237.646,198.481c0-0.333-0.273-0.604-0.61-0.604c-0.337,0-0.611,0.271-0.611,0.604s0.273,0.604,0.611,0.604
		C237.373,199.085,237.646,198.815,237.646,198.481L237.646,198.481z"/>
</g>
<g id="CIRCLE_7_">
	<path fill="none" stroke="#000000" stroke-width="0.5" stroke-linecap="round" stroke-linejoin="round" stroke-miterlimit="10" d="
		M258.272,210.256c0-0.333-0.273-0.604-0.61-0.604c-0.337,0-0.611,0.271-0.611,0.604c0,0.334,0.273,0.604,0.611,0.604
		C257.999,210.86,258.272,210.59,258.272,210.256L258.272,210.256z"/>
</g>
<g id="CIRCLE_8_">
	<path fill="none" stroke="#000000" stroke-width="0.5" stroke-linecap="round" stroke-linejoin="round" stroke-miterlimit="10" d="
		M93.26,116.059c0-0.333-0.273-0.604-0.61-0.604s-0.61,0.271-0.61,0.604c0,0.334,0.273,0.604,0.61,0.604
		S93.26,116.393,93.26,116.059L93.26,116.059z"/>
</g>
<g id="CIRCLE_9_">
	<path fill="none" stroke="#000000" stroke-width="0.5" stroke-linecap="round" stroke-linejoin="round" stroke-miterlimit="10" d="
		M113.887,127.833c0-0.334-0.273-0.604-0.611-0.604s-0.611,0.27-0.611,0.604c0,0.333,0.273,0.604,0.611,0.604
		S113.887,128.167,113.887,127.833L113.887,127.833z"/>
</g>
<g id="CIRCLE_10_">
	<path fill="none" stroke="#000000" stroke-width="0.5" stroke-linecap="round" stroke-linejoin="round" stroke-miterlimit="10" d="
		M134.514,139.608c0-0.334-0.273-0.605-0.611-0.605c-0.337,0-0.611,0.271-0.611,0.605c0,0.333,0.274,0.604,0.611,0.604
		C134.24,140.212,134.514,139.942,134.514,139.608L134.514,139.608z"/>
</g>
<g id="CIRCLE_11_">
	<path fill="none" stroke="#000000" stroke-width="0.5" stroke-linecap="round" stroke-linejoin="round" stroke-miterlimit="10" d="
		M155.14,151.383c0-0.334-0.273-0.604-0.611-0.604s-0.611,0.27-0.611,0.604c0,0.333,0.273,0.604,0.611,0.604
		S155.14,151.716,155.14,151.383L155.14,151.383z"/>
</g>
<g id="CIRCLE_12_">
	<path fill="none" stroke="#000000" stroke-width="0.5" stroke-linecap="round" stroke-linejoin="round" stroke-miterlimit="10" d="
		M194.533,58.206c0-0.333-0.273-0.604-0.61-0.604c-0.337,0-0.61,0.271-0.61,0.604c0,0.334,0.273,0.604,0.61,0.604
		C194.26,58.811,194.533,58.54,194.533,58.206L194.533,58.206z"/>
</g>
<g id="CIRCLE_13_">
	<path fill="none" stroke="#000000" stroke-width="0.5" stroke-linecap="round" stroke-linejoin="round" stroke-miterlimit="10" d="
		M215.16,69.981c0-0.333-0.273-0.604-0.611-0.604c-0.337,0-0.61,0.271-0.61,0.604c0,0.334,0.273,0.604,0.61,0.604
		C214.886,70.585,215.16,70.315,215.16,69.981L215.16,69.981z"/>
</g>
<g id="CIRCLE_14_">
	<path fill="none" stroke="#000000" stroke-width="0.5" stroke-linecap="round" stroke-linejoin="round" stroke-miterlimit="10" d="
		M235.787,81.756c0-0.334-0.274-0.605-0.611-0.605c-0.337,0-0.611,0.271-0.611,0.605c0,0.333,0.273,0.604,0.611,0.604
		C235.513,82.36,235.787,82.089,235.787,81.756L235.787,81.756z"/>
</g>
<g id="CIRCLE_15_">
	<path fill="none" stroke="#000000" stroke-width="0.5" stroke-linecap="round" stroke-linejoin="round" stroke-miterlimit="10" d="
		M256.413,93.531c0-0.334-0.273-0.604-0.61-0.604c-0.338,0-0.61,0.271-0.61,0.604c0,0.333,0.272,0.604,0.61,0.604
		C256.139,94.134,256.413,93.864,256.413,93.531L256.413,93.531z"/>
</g>
<g id="CIRCLE_16_">
	<path fill="none" stroke="#000000" stroke-width="0.5" stroke-linecap="round" stroke-linejoin="round" stroke-miterlimit="10" d="
		M297.666,117.08c0-0.333-0.274-0.604-0.611-0.604c-0.337,0-0.61,0.271-0.61,0.604c0,0.334,0.273,0.604,0.61,0.604
		C297.392,117.684,297.666,117.414,297.666,117.08L297.666,117.08z"/>
</g>
<g id="CIRCLE_17_">
	<path fill="none" stroke="#000000" stroke-width="0.5" stroke-linecap="round" stroke-linejoin="round" stroke-miterlimit="10" d="
		M318.292,128.854c0-0.333-0.273-0.604-0.61-0.604c-0.337,0-0.611,0.271-0.611,0.604s0.274,0.604,0.611,0.604
		C318.019,129.458,318.292,129.188,318.292,128.854L318.292,128.854z"/>
</g>
<g id="CIRCLE_18_">
	<path fill="none" stroke="#000000" stroke-width="0.5" stroke-linecap="round" stroke-linejoin="round" stroke-miterlimit="10" d="
		M338.918,140.629c0-0.334-0.272-0.604-0.61-0.604c-0.336,0-0.61,0.27-0.61,0.604c0,0.333,0.274,0.604,0.61,0.604
		C338.646,141.234,338.918,140.962,338.918,140.629L338.918,140.629z"/>
</g>
<g id="CIRCLE_19_">
	<path fill="none" stroke="#000000" stroke-width="0.5" stroke-linecap="round" stroke-linejoin="round" stroke-miterlimit="10" d="
		M359.545,152.404c0-0.333-0.273-0.604-0.61-0.604s-0.61,0.271-0.61,0.604s0.273,0.604,0.61,0.604S359.545,152.737,359.545,152.404
		L359.545,152.404z"/>
</g>
<g id="CIRCLE_20_">
	<path fill="none" stroke="#000000" stroke-width="0.5" stroke-linecap="round" stroke-linejoin="round" stroke-miterlimit="10" d="
		M400.799,175.953c0-0.333-0.274-0.604-0.611-0.604s-0.611,0.271-0.611,0.604c0,0.334,0.274,0.604,0.611,0.604
		S400.799,176.287,400.799,175.953L400.799,175.953z"/>
</g>
<g id="CIRCLE_21_">
	<path fill="none" stroke="#000000" stroke-width="0.5" stroke-linecap="round" stroke-linejoin="round" stroke-miterlimit="10" d="
		M421.425,187.728c0-0.333-0.272-0.604-0.61-0.604c-0.337,0-0.611,0.271-0.611,0.604c0,0.334,0.274,0.604,0.611,0.604
		C421.153,188.332,421.425,188.062,421.425,187.728L421.425,187.728z"/>
</g>
<g id="CIRCLE_22_">
	<path fill="none" stroke="#000000" stroke-width="0.5" stroke-linecap="round" stroke-linejoin="round" stroke-miterlimit="10" d="
		M442.052,199.503c0-0.334-0.274-0.604-0.611-0.604c-0.336,0-0.61,0.271-0.61,0.604c0,0.333,0.274,0.604,0.61,0.604
		C441.778,200.107,442.052,199.836,442.052,199.503L442.052,199.503z"/>
</g>
<g id="CIRCLE_23_">
	<path fill="none" stroke="#000000" stroke-width="0.5" stroke-linecap="round" stroke-linejoin="round" stroke-miterlimit="10" d="
		M462.678,211.277c0-0.334-0.273-0.604-0.61-0.604s-0.61,0.271-0.61,0.604c0,0.333,0.273,0.604,0.61,0.604
		S462.678,211.611,462.678,211.277L462.678,211.277z"/>
</g>
</svg>
